# xmcd
#
# Track frame offsets:
#	187
#	14722
#	33815
#	49205
#	62097
#	79100
#	98255
#	117570
#	133657
#	152480
#	166182
#	181735
#	198062
#	215975
#	228695
#	238037
#	248147
#
# Disc length: 3553 seconds
# Revision: 0
# Processed by: cddbd v1.5.2PL0 Copyright (c) Steve Scherf et al.
# Submitted via: dBpowerAMP V12.0
#
DISCID=e00ddf11
DTITLE=Various Artist - God Bless The U.S.A. (1 of 4)
DYEAR=1992
DGENRE=Country
TTITLE0=Lee Greenwood - God Bless The U.S.A.
TTITLE1=Alabama - Mountain Music
TTITLE2=Reba McEntire - Whoever's In New England
TTITLE3=The Statler Brothers - Take Me Home, Country Roads
TTITLE4=Ronnie Milsap - Smoky Mountain Rain
TTITLE5=The Judds - Grandpa (Tell Me 'Bout The Good Old Days)
TTITLE6=Mac Davis - Texas In My Rear View Mirror
TTITLE7=Charley Pride - Roll On, Mississippi
TTITLE8=Michael Martin Murphey - Carolina In The Pines
TTITLE9=Dolly Parton - My Tennessee Mountain Home
TTITLE10=Waylon Jennings - America
TTITLE11=Barbara Mandrell - Fast Lanes and Country Roads
TTITLE12=Ronnie Milsap - She Keeps The Home Fires Burning
TTITLE13=Dolly Parton - Daddy
TTITLE14=Liz Anderson and Lynn Anderson - Mother, May I
TTITLE15=Charlie Pride - Cotton Fields
TTITLE16=Alabama - My Home's In Alabama
EXTD=
EXTT0=
EXTT1=
EXTT2=
EXTT3=
EXTT4=
EXTT5=
EXTT6=
EXTT7=
EXTT8=
EXTT9=
EXTT10=
EXTT11=
EXTT12=
EXTT13=
EXTT14=
EXTT15=
EXTT16=
PLAYORDER=
